<svg version="1.1" id="Layer_1" xmlns="http://www.w3.org/2000/svg" xmlns:xlink="http://www.w3.org/1999/xlink" x="0px" y="0px"
	 width="100%" viewBox="0 0 400 400" enable-background="new 0 0 400 400" xml:space="preserve">
<path fill="#FFFFFF" opacity="1.000000" stroke="none" 
	d="
M268.000000,401.000000 
	C178.694427,401.000000 89.888847,401.000000 1.041634,401.000000 
	C1.041634,267.736084 1.041634,134.472168 1.041634,1.104123 
	C134.222183,1.104123 267.444489,1.104123 400.833374,1.104123 
	C400.833374,134.333160 400.833374,267.666565 400.833374,401.000000 
	C356.805573,401.000000 312.652802,401.000000 268.000000,401.000000 
M218.589813,352.072205 
	C241.074890,348.027252 259.706360,338.044067 271.284546,317.466064 
	C277.737518,305.997131 279.722656,293.346588 279.787903,280.433319 
	C279.953766,247.609314 279.843048,214.783920 279.843048,181.959076 
	C279.843048,180.510574 279.843048,179.062057 279.843048,177.420898 
	C265.749756,177.420898 252.184860,177.420898 238.156967,177.420898 
	C238.156967,179.468842 238.156967,181.259048 238.156967,183.049255 
	C238.156967,214.541107 238.133347,246.032990 238.173279,277.524780 
	C238.183456,285.547150 236.390900,293.024445 231.882370,299.715851 
	C222.963104,312.953400 206.094177,318.867584 190.508438,314.300201 
	C174.146118,309.505249 163.962814,296.381897 163.885376,279.265320 
	C163.739868,247.107635 163.843185,214.948807 163.843033,182.790466 
	C163.843018,181.024582 163.843033,179.258682 163.843033,177.480408 
	C149.628311,177.480408 136.062622,177.480408 122.493736,177.480408 
	C122.345551,178.268143 122.178078,178.743393 122.177872,179.218704 
	C122.162704,213.876389 121.900482,248.536774 122.262299,283.190643 
	C122.457520,301.887787 127.606964,319.128113 141.801773,332.345917 
	C163.480759,352.532745 189.731964,355.809113 218.589813,352.072205 
M169.133575,112.615700 
	C178.358597,107.294701 187.669220,102.114273 196.761932,96.576050 
	C199.920776,94.652054 202.260727,94.849968 205.371460,96.670776 
	C227.631180,109.700050 250.000488,122.542114 272.340240,135.434570 
	C274.574951,136.724258 276.844696,137.953217 279.845215,139.627075 
	C279.845215,124.312485 279.917053,110.037445 279.714935,95.766281 
	C279.697937,94.566963 278.069275,93.001762 276.805450,92.266350 
	C252.642212,78.205627 228.450897,64.191940 204.145584,50.379322 
	C202.536057,49.464630 199.512802,49.436031 197.913681,50.344551 
	C173.606735,64.154228 149.397293,78.137230 125.289413,92.291550 
	C123.721153,93.212311 122.311066,95.835846 122.272438,97.697296 
	C122.009842,110.352859 122.124870,123.016510 122.154472,135.677460 
	C122.156937,136.730927 122.428665,137.783752 122.575157,138.836014 
	C123.303482,138.740311 123.677094,138.791534 123.935852,138.642868 
	C138.798340,130.103546 153.651276,121.547638 169.133575,112.615700 
z"/>
<path fill="#030303" opacity="1.000000" stroke="none" 
	d="
M218.152328,352.115417 
	C189.731964,355.809113 163.480759,352.532745 141.801773,332.345917 
	C127.606964,319.128113 122.457520,301.887787 122.262299,283.190643 
	C121.900482,248.536774 122.162704,213.876389 122.177872,179.218704 
	C122.178078,178.743393 122.345551,178.268143 122.493736,177.480408 
	C136.062622,177.480408 149.628311,177.480408 163.843033,177.480408 
	C163.843033,179.258682 163.843018,181.024582 163.843033,182.790466 
	C163.843185,214.948807 163.739868,247.107635 163.885376,279.265320 
	C163.962814,296.381897 174.146118,309.505249 190.508438,314.300201 
	C206.094177,318.867584 222.963104,312.953400 231.882370,299.715851 
	C236.390900,293.024445 238.183456,285.547150 238.173279,277.524780 
	C238.133347,246.032990 238.156967,214.541107 238.156967,183.049255 
	C238.156967,181.259048 238.156967,179.468842 238.156967,177.420898 
	C252.184860,177.420898 265.749756,177.420898 279.843048,177.420898 
	C279.843048,179.062057 279.843048,180.510574 279.843048,181.959076 
	C279.843048,214.783920 279.953766,247.609314 279.787903,280.433319 
	C279.722656,293.346588 277.737518,305.997131 271.284546,317.466064 
	C259.706360,338.044067 241.074890,348.027252 218.152328,352.115417 
z"/>
<path fill="#A537F0" opacity="1.000000" stroke="none" 
	d="
M168.819366,112.804520 
	C153.651276,121.547638 138.798340,130.103546 123.935852,138.642868 
	C123.677094,138.791534 123.303482,138.740311 122.575157,138.836014 
	C122.428665,137.783752 122.156937,136.730927 122.154472,135.677460 
	C122.124870,123.016510 122.009842,110.352859 122.272438,97.697296 
	C122.311066,95.835846 123.721153,93.212311 125.289413,92.291550 
	C149.397293,78.137230 173.606735,64.154228 197.913681,50.344551 
	C199.512802,49.436031 202.536057,49.464630 204.145584,50.379322 
	C228.450897,64.191940 252.642212,78.205627 276.805450,92.266350 
	C278.069275,93.001762 279.697937,94.566963 279.714935,95.766281 
	C279.917053,110.037445 279.845215,124.312485 279.845215,139.627075 
	C276.844696,137.953217 274.574951,136.724258 272.340240,135.434570 
	C250.000488,122.542114 227.631180,109.700050 205.371460,96.670776 
	C202.260727,94.849968 199.920776,94.652054 196.761932,96.576050 
	C187.669220,102.114273 178.358597,107.294701 168.819366,112.804520 
z"/>
</svg>